<svg width="40" height="40" viewBox="0 0 40 40" fill="none" xmlns="http://www.w3.org/2000/svg"><path fill-rule="evenodd" clip-rule="evenodd" d="M0 20C0 8.95431 8.95431 0 20 0c11.0457 0 20 8.95431 20 20 0 11.0457-8.9543 20-20 20C8.95431 40 0 31.0457 0 20Zm20-10c5.5 0 10 4.5 10 10 0 5-3.625 9.25-8.625 10v-7.125h2.375l.5-2.875H21.5v-1.875c0-.75.375-1.5 1.625-1.5h1.25v-2.5s-1.125-.25-2.25-.25c-2.25 0-3.75 1.375-3.75 3.875V20h-2.5v2.875h2.5v7C13.625 29.125 10 25 10 20c0-5.5 4.5-10 10-10Z" fill="#A2BDAA"/></svg>