<svg width="40" height="40" viewBox="0 0 40 40" fill="none" xmlns="http://www.w3.org/2000/svg"><path d="M20 23.5c-1.875 0-3.5-1.5-3.5-3.5 0-1.875 1.5-3.5 3.5-3.5 1.875 0 3.5 1.5 3.5 3.5 0 1.875-1.625 3.5-3.5 3.5Z" fill="#A2BDAA"/><path fill-rule="evenodd" clip-rule="evenodd" d="M24.25 11.5h-8.5c-1 .125-1.5.25-1.875.375-.5.125-.875.375-1.25.75-.2967.2967-.4369.5935-.6064.9521-.0447.0946-.0915.1936-.1436.2979-.0193.058-.0417.119-.0656.1844-.1308.3573-.3094.8453-.3094 1.6906v8.5c.125 1 .25 1.5.375 1.875.125.5.375.875.75 1.25.2967.2967.5935.4369.9521.6064.0946.0447.1935.0914.2979.1436.058.0193.119.0417.1844.0656.3573.1308.8453.3094 1.6906.3094h8.5c1-.125 1.5-.25 1.875-.375.5-.125.875-.375 1.25-.75.2967-.2967.4369-.5935.6064-.9521.0447-.0946.0914-.1936.1436-.2979.0193-.058.0417-.119.0656-.1844.1308-.3573.3094-.8453.3094-1.6906v-8.5c-.125-1-.25-1.5-.375-1.875-.125-.5-.375-.875-.75-1.25-.2967-.2967-.5935-.4369-.9521-.6064-.0945-.0446-.1937-.0915-.2979-.1436-.058-.0193-.119-.0417-.1844-.0656-.3573-.1308-.8453-.3094-1.6906-.3094ZM20 14.625c-3 0-5.375 2.375-5.375 5.375S17 25.375 20 25.375 25.375 23 25.375 20 23 14.625 20 14.625Zm6.75-.125c0 .6904-.5596 1.25-1.25 1.25s-1.25-.5596-1.25-1.25.5596-1.25 1.25-1.25 1.25.5596 1.25 1.25Z" fill="#A2BDAA"/><path fill-rule="evenodd" clip-rule="evenodd" d="M0 20C0 8.95431 8.95431 0 20 0c11.0457 0 20 8.95431 20 20 0 11.0457-8.9543 20-20 20C8.95431 40 0 31.0457 0 20ZM15.75 9.625h8.5c1.125.125 1.875.25 2.5.5.75.375 1.25.625 1.875 1.25s1 1.25 1.25 1.875.5 1.375.5 2.5v8.5c-.125 1.125-.25 1.875-.5 2.5-.375.75-.625 1.25-1.25 1.875s-1.25 1-1.875 1.25-1.375.5-2.5.5h-8.5c-1.125-.125-1.875-.25-2.5-.5-.75-.375-1.25-.625-1.875-1.25s-1-1.25-1.25-1.875-.5-1.375-.5-2.5v-8.5c.125-1.125.25-1.875.5-2.5.375-.75.625-1.25 1.25-1.875s1.25-1 1.875-1.25 1.375-.5 2.5-.5Z" fill="#A2BDAA"/></svg>