<svg width="40" height="40" viewBox="0 0 40 40" fill="none" xmlns="http://www.w3.org/2000/svg"><path fill-rule="evenodd" clip-rule="evenodd" d="M0 20C0 8.95431 8.95431 0 20 0c11.0457 0 20 8.95431 20 20 0 11.0457-8.9543 20-20 20C8.95431 40 0 31.0457 0 20Zm27.625-5.625c.875-.125 1.625-.25 2.375-.625-.5.875-1.25 1.625-2.125 2.125.25 5.875-4 12.25-11.625 12.25-2.25 0-4.375-.75-6.25-1.875 2.125.25 4.375-.375 5.875-1.5C14 24.75 12.5 23.5 12 21.875c.625.125 1.25 0 1.875-.125-1.875-.5-3.25-2.25-3.25-4.125.625.25 1.25.5 1.875.5-1.75-1.25-2.375-3.625-1.25-5.5 2.125 2.5 5.125 4.125 8.5 4.25-.625-2.5 1.375-5 4-5 1.125 0 2.25.5 3 1.25 1-.25 1.875-.5 2.625-1-.25 1-.875 1.75-1.75 2.25Z" fill="#A2BDAA"/></svg>